<svg width="128.000000" height="128.000000" viewBox="0 0 128 128" fill="none" xmlns="http://www.w3.org/2000/svg" xmlns:xlink="http://www.w3.org/1999/xlink">
	<desc>
			Created with Pixso.
	</desc>
	<defs>
		<clipPath id="clip5_20">
			<rect id="logo" width="128.000000" height="128.000000" fill="white" fill-opacity="0"/>
		</clipPath>
		<clipPath id="clip5_22">
			<rect id="画板 1" width="128.000000" height="128.000000" fill="white" fill-opacity="0"/>
		</clipPath>
	</defs>
	<rect id="画板 1" width="128.000000" height="128.000000" fill="#FFFFFF" fill-opacity="0"/>
	<g clip-path="url(#clip5_22)">
		<g clip-path="url(#clip5_20)">
			<ellipse id="svg_24" cx="63.999996" cy="64.000000" rx="63.999992" ry="64.000000" fill="#FFFFFF" fill-opacity="1.000000"/>
			<ellipse id="svg_24" cx="63.999996" cy="64.000000" rx="63.999992" ry="64.000000" stroke="#000000" stroke-opacity="0" stroke-width="1.000000"/>
			<path id="svg_6" d="M68.66 119.7C66 121.08 63.3 120.47 60.72 120.35C56.1 120.12 51.54 119.25 47.06 117.92C45.05 117.32 44.65 116.31 45.23 114.44C46 111.91 46.62 109.32 47.32 106.76C47.86 104.8 47.4 103.24 45.4 102.52C43.52 101.84 42.15 102.9 41.51 105.3C40.85 107.79 40.09 110.25 39.56 112.76C39.24 114.25 38.67 114.6 37.36 113.85C27.87 108.42 20.19 101.2 14.79 91.58C9.48 82.13 7.09 72.02 7.55 61.26C7.8 55.36 8.99 49.6 11.02 44.02C11.47 42.81 12.13 42.21 13.42 42.44C15.75 42.86 16.73 41.6 17.22 39.54C17.82 37.04 18.74 34.61 19.15 32.09C20.04 26.71 24.26 23.9 27.79 20.61C30.83 17.77 34.32 15.31 38.14 13.77C43.81 11.49 49.33 8.6 55.56 7.96C56.21 7.89 56.87 7.95 57.58 7.95C55.46 13.57 54.3 19.33 52.76 24.97C52.3 26.68 53.16 27.99 54.82 28.35C56.4 28.69 57.98 28.59 58.52 26.45C59.7 21.79 60.97 17.16 62.23 12.52C62.74 10.65 62.87 8.9 60.61 7.58C64.67 7.17 68.27 7.56 71.87 7.94C73.12 8.07 73.07 8.84 72.81 9.74C72.45 11.01 72.04 12.28 71.71 13.56C71.25 15.37 71.95 16.78 73.67 17.32C75.41 17.88 76.8 17.04 77.43 15.33C77.92 14.02 78.24 12.63 78.5 11.25C78.8 9.71 79.53 9.48 80.95 9.95C86.35 11.74 91.41 14.19 96.08 17.44C97.17 18.2 97.68 18.92 97.16 20.34C96.72 21.53 96.86 22.81 98.09 23.68C99.32 24.55 100.6 24.7 101.77 23.74C102.65 23.03 103.14 23.28 103.84 23.97C112.22 32.29 117.41 42.26 119.55 53.88C121.39 63.91 120.53 73.67 117.12 83.25C115.49 87.82 113.2 92.04 110.48 96.04C109.89 96.9 109.31 97.43 108.08 96.9C106.78 96.32 106.66 95.18 106.39 94.15C103.67 83.94 100.95 73.72 98.36 63.47C96.22 55.01 92.51 47.56 85.64 41.92C85.32 41.66 85.06 41.33 84.81 40.77C85.07 37.18 86.49 34.05 87.13 30.72C87.29 29.91 87.58 29.13 87.62 28.3C87.67 27.2 87.26 26.31 86.19 25.94C84.97 25.51 84.07 26.09 83.52 27.13C82.55 28.98 82.18 31.03 81.64 33.02C81.25 34.45 81.09 35.95 80.21 37.42C79.15 38.02 78.33 37.54 77.51 37.23C74.83 36.23 72.1 35.43 69.2 34.54C66.34 31.57 66.01 31.51 63.46 33.69C59.68 34.26 56.01 34.2 52.42 35.05C42.76 37.32 34.68 41.96 29.77 50.83C25.62 58.33 25.31 66.05 29.84 73.66C30.92 75.47 32.83 76.57 33.8 78.68C33.19 83.41 31.47 87.69 30.5 92.15C30.33 92.97 30.07 93.76 29.95 94.59C29.75 95.99 30.13 97.14 31.61 97.51C33 97.86 33.81 97.01 34.26 95.81C34.83 94.34 35.21 92.8 35.62 91.27C36.38 88.38 36.99 85.44 38.24 82.5C39.1 81.88 39.83 82.14 40.5 82.49C43.17 83.89 46.1 84.59 49.05 85.76C50.04 86.86 51.08 86.86 52.38 86.41C55.3 86.16 57.97 86.86 60.68 86.82C61.84 86.8 62.72 87.47 63.14 88.57C63.85 90.41 64.64 92.23 64.36 94.47C64.07 95.04 63.73 95.36 63.32 95.37C60.27 95.5 59.36 97.61 58.77 100.11C57.99 103.42 56.91 106.65 56.18 109.98C56.02 110.71 55.8 111.43 55.76 112.18C55.68 113.43 55.93 114.6 57.3 114.95C58.69 115.3 59.47 114.32 59.96 113.21C60.6 111.77 60.98 110.22 61.35 108.7C62.03 105.96 62.79 103.24 63.56 100.53C63.8 99.69 63.81 98.66 65.09 98.42C65.38 98.63 65.54 98.74 65.58 98.89C67.51 105.33 68.3 111.96 69.09 118.6C69.13 118.92 68.96 119.24 68.66 119.7Z" fill="#CDE7FF" fill-opacity="1.000000" fill-rule="nonzero"/>
			<path id="svg_7" d="M106.08 101.28C97.67 111.12 87.08 116.85 74.68 119.42C73.79 119.6 72.89 119.73 71.79 119.87C70.44 118.56 70.66 116.88 70.42 115.36C69.08 106.72 67.62 98.11 65.35 89.65C64.2 85.38 63.91 85.31 59.61 85.07C51.12 84.6 42.87 83.26 35.96 77.67C29.15 72.15 26.78 64.69 29.28 56.25C31.11 50.06 34.92 45.26 40.35 41.96C53.89 33.74 67.74 33.48 81.56 41.27C89.54 45.76 93.72 53.23 96.09 61.69C99.54 74.04 102.58 86.49 105.92 98.87C106.11 99.6 106.3 100.32 106.08 101.28Z" fill="#97EE79" fill-opacity="1.000000" fill-rule="nonzero"/>
			<path id="svg_8" d="M106.18 101.39C103.18 90.81 100.39 80.13 97.47 69.49C96.21 64.86 95.18 60.17 93.2 55.72C88.96 46.19 81.68 40.46 71.81 37.82C60.51 34.8 49.87 36.45 40.11 42.92C34 46.97 30.01 52.66 29.15 60.01C28.17 68.33 31.5 74.84 39.99 79.62C46.46 83.26 53.61 84.4 60.9 84.34C63.62 84.31 64.8 85.31 65.51 87.7C67.79 95.43 69.14 103.36 70.48 111.29C70.93 113.99 71.2 116.71 71.58 119.64C70.71 119.9 69.83 119.94 68.74 119.93C67.93 112.76 66.52 105.78 65 98.61C64.22 98.12 64.06 97.48 63.97 96.64C63.95 96.16 63.95 95.85 63.98 95.23C64.03 92.72 63.12 90.74 62.54 88.67C62.25 87.68 61.63 87.37 60.69 87.43C57.94 87.6 55.24 87.05 52.3 86.85C51.06 87.5 50.16 86.8 49.12 86.37C45.5 85.33 42.11 84.11 38.7 82.43C36.43 82.07 34.83 80.99 33.58 79.09C27.63 73.33 24.91 66.64 26.37 58.47C27.99 49.34 33.5 43.07 41.26 38.61C47.97 34.74 55.32 33.19 63.28 33.4C65.28 32.44 66.94 33.18 68.8 33.8C72.59 34.9 76.21 35.8 79.77 37.46C81.99 37.63 83.52 38.72 84.91 40.31C93.9 47.18 97.54 56.81 100.04 67.19C102.41 77.03 105.15 86.78 107.82 96.73C108.5 98.75 107.73 100.15 106.18 101.39Z" fill="#66AAA4" fill-opacity="1.000000" fill-rule="nonzero"/>
			<path id="svg_9" d="M26 34.93C26.94 31.45 27.88 28.19 28.74 24.9C29.23 23.05 30.44 22.16 32.22 22.51C34.03 22.87 34.89 24.34 34.47 26.09C33.21 31.24 31.87 36.37 30.38 41.45C29.87 43.18 28.24 43.93 26.55 43.29C24.91 42.68 24.21 41.26 24.75 39.44C25.18 38.01 25.57 36.57 26 34.93Z" fill="#FEFEFF" fill-opacity="1.000000" fill-rule="nonzero"/>
			<path id="svg_10" d="M20.68 62.01C22.12 61.16 23.33 61.17 24.5 62.17C25.72 63.22 25.54 64.4 25.15 65.8C23.85 70.43 22.68 75.09 21.46 79.74C21 81.48 19.92 82.63 18.07 82.32C16.2 81.99 15.06 80.7 15.56 78.71C16.88 73.48 18.32 68.29 19.75 63.1C19.85 62.74 20.26 62.46 20.68 62.01Z" fill="#FEFEFF" fill-opacity="1.000000" fill-rule="nonzero"/>
			<path id="svg_11" d="M118.88 59.32C119.34 63.28 117.43 66.58 116.81 70.15C116.46 72.17 115.69 74.12 115.18 76.12C114.61 78.36 112.93 78.76 111.13 78.31C109.44 77.88 108.95 76.34 109.35 74.73C110.59 69.85 111.8 64.95 113.23 60.12C114.16 56.99 116.33 56.69 118.88 59.32Z" fill="#FEFEFF" fill-opacity="1.000000" fill-rule="nonzero"/>
			<path id="svg_12" d="M102.17 41.67C102.55 40.54 102.74 39.53 103.21 38.67C103.83 37.54 104.79 36.62 106.23 36.99C107.63 37.35 108.48 38.29 108.53 39.85C108.61 42.23 107.66 44.37 107.06 46.6C106.29 49.47 105.51 52.35 104.84 55.25C104.33 57.46 103 58.32 100.86 57.89C98.69 57.44 98.73 55.63 99.05 54.12C99.83 50.49 100.87 46.92 101.79 43.32C101.92 42.84 102 42.34 102.17 41.67Z" fill="#FEFEFF" fill-opacity="1.000000" fill-rule="nonzero"/>
			<path id="svg_13" d="M64.36 95.81C64.56 96.65 64.7 97.36 64.89 98.25C63.62 103.19 62.3 107.96 60.96 112.73C60.54 114.22 59.8 115.52 58.14 115.89C56.91 116.16 56.07 115.43 55.41 114.53C54.7 113.56 54.86 112.41 55.11 111.39C56.18 107.14 57.3 102.9 58.52 98.68C59.54 95.15 59.97 94.91 63.8 94.93C64.01 94.92 64 94.92 64.01 94.92C64.2 95.14 64.24 95.42 64.36 95.81Z" fill="#FEFFFF" fill-opacity="1.000000" fill-rule="nonzero"/>
			<path id="svg_14" d="M33.43 79.1C35.1 80 36.7 81.08 38.41 82.28C37.33 87.04 36.22 91.69 34.91 96.28C34.43 97.98 33.07 98.88 31.23 98.24C29.52 97.65 28.7 96.4 29.2 94.55C30.57 89.46 31.97 84.37 33.43 79.1Z" fill="#FDFEFF" fill-opacity="1.000000" fill-rule="nonzero"/>
			<path id="svg_15" d="M85.09 40.36C83.36 39.57 81.77 38.66 80.07 37.62C80.6 34.1 81.49 30.76 82.55 27.47C83.13 25.68 84.31 24.52 86.26 25.15C88.21 25.77 88.79 27.2 88.17 29.27C87.08 32.89 86.2 36.58 85.09 40.36Z" fill="#FDFEFF" fill-opacity="1.000000" fill-rule="nonzero"/>
			<path id="svg_16" d="M68.92 33.75C67.3 33.76 65.61 33.61 63.72 33.42C65.01 30.71 67.03 30.79 68.92 33.75Z" fill="#F5FAFC" fill-opacity="1.000000" fill-rule="nonzero"/>
			<path id="svg_17" d="M49.07 86.37C49.92 86.36 50.81 86.54 51.9 86.78C51 87.74 50 87.77 49.07 86.37Z" fill="#F1F8FC" fill-opacity="1.000000" fill-rule="nonzero"/>
			<path id="svg_18" d="M62 49.05C63.23 47.14 64.83 46.5 66.79 47.16C68.52 47.75 69.5 49.05 69.49 50.91C69.48 52.75 68.55 54.05 66.82 54.7C65.27 55.28 63.83 54.89 62.71 53.77C61.43 52.5 61.08 50.94 62 49.05Z" fill="#2F3E28" fill-opacity="1.000000" fill-rule="nonzero"/>
			<path id="svg_19" d="M64.44 95.79C64.28 95.7 64.13 95.45 64 95.06C64.16 95.16 64.31 95.4 64.44 95.79Z" fill="#CDE7FF" fill-opacity="1.000000" fill-rule="nonzero"/>
		</g>
	</g>
</svg>
